<svg width="19" height="18" viewBox="0 0 19 18" fill="none" xmlns="http://www.w3.org/2000/svg">
<path fill-rule="evenodd" clip-rule="evenodd" d="M9.5 2.81904C10.311 1.15102 12.022 0 14 0C16.76 0 19 2.24003 19 5.00007C19 7.91811 17.516 10.5941 15.715 12.7452C13.069 15.9062 9.761 17.9272 9.761 17.9272C9.601 18.0243 9.399 18.0243 9.239 17.9272C9.239 17.9272 5.931 15.9062 3.285 12.7452C1.484 10.5941 0 7.91811 0 5.00007C0 2.24003 2.24 0 5 0C6.978 0 8.689 1.15102 9.5 2.81904ZM18 5.00007C18 2.79204 16.208 1.00001 14 1.00001C11.792 1.00001 10 2.79204 10 5.00007V5.01907C9.989 5.28607 9.769 5.50008 9.5 5.50008C9.226 5.50008 9.004 5.28007 9 5.00707V5.00007C9 2.79204 7.208 1.00001 5 1.00001C2.792 1.00001 1 2.79204 1 5.00007C1 7.68211 2.396 10.1261 4.051 12.1032C6.154 14.6142 8.691 16.3762 9.5 16.9062C10.309 16.3762 12.846 14.6142 14.949 12.1032C16.604 10.1261 18 7.68211 18 5.00007Z" fill="white"/>
</svg>
