<svg width="20" height="18" viewBox="0 0 20 18" fill="none" xmlns="http://www.w3.org/2000/svg">
<path fill-rule="evenodd" clip-rule="evenodd" d="M6.01215 14.8235C5.10704 14.8235 4.37247 15.5351 4.37247 16.4118C4.37247 17.2885 5.10704 18 6.01215 18C6.91725 18 7.65182 17.2885 7.65182 16.4118C7.65182 15.5351 6.91725 14.8235 6.01215 14.8235ZM16.9433 14.8235C16.0382 14.8235 15.3036 15.5351 15.3036 16.4118C15.3036 17.2885 16.0382 18 16.9433 18C17.8484 18 18.583 17.2885 18.583 16.4118C18.583 15.5351 17.8484 14.8235 16.9433 14.8235ZM6.01215 15.8824C6.31385 15.8824 6.5587 16.1195 6.5587 16.4118C6.5587 16.704 6.31385 16.9412 6.01215 16.9412C5.71045 16.9412 5.46559 16.704 5.46559 16.4118C5.46559 16.1195 5.71045 15.8824 6.01215 15.8824ZM16.9433 15.8824C17.245 15.8824 17.4899 16.1195 17.4899 16.4118C17.4899 16.704 17.245 16.9412 16.9433 16.9412C16.6416 16.9412 16.3968 16.704 16.3968 16.4118C16.3968 16.1195 16.6416 15.8824 16.9433 15.8824ZM6.77514 11.6471L6.91288 12.2845C6.96534 12.5301 7.18834 12.7059 7.44741 12.7059H14.7571C15.0588 12.7059 15.3036 12.9431 15.3036 13.2353C15.3036 13.5275 15.0588 13.7647 14.7571 13.7647H7.44741C6.6713 13.7647 6.00122 13.2374 5.84271 12.5005C5.34644 10.1922 3.96802 3.78847 3.47174 1.48024C3.41927 1.23459 3.19628 1.05882 2.93721 1.05882H0.546559C0.244858 1.05882 0 0.821647 0 0.529412C0 0.237176 0.244858 0 0.546559 0H2.93721C3.71332 0 4.3834 0.527294 4.5419 1.26424L6.54777 10.5882H16.2142C16.482 10.5882 16.7094 10.4008 16.7542 10.1456C16.9619 8.93435 17.3336 6.77329 17.5423 5.562C17.6746 4.79647 18.3578 4.23529 19.1602 4.23529C19.4619 4.23529 19.7067 4.47247 19.7067 4.76471C19.7067 5.05694 19.4619 5.29412 19.1602 5.29412C18.8923 5.29412 18.665 5.48153 18.6202 5.73671C18.4125 6.948 18.0408 9.10906 17.832 10.3204C17.6998 11.0859 17.0166 11.6471 16.2142 11.6471H6.77514Z" fill="#1A1A1A"/>
</svg>
