<svg width="660" height="582" viewBox="0 0 660 582" fill="none" xmlns="http://www.w3.org/2000/svg">
<rect x="660" y="-0.707031" width="1" height="932.381" transform="rotate(135 660 -0.707031)" fill="url(#paint0_linear_15_488)"/>
<rect x="660" y="9.29297" width="1" height="932.381" transform="rotate(135 660 9.29297)" fill="url(#paint1_linear_15_488)"/>
<rect x="660" y="19.293" width="1" height="932.381" transform="rotate(135 660 19.293)" fill="url(#paint2_linear_15_488)"/>
<rect x="660" y="29.293" width="1" height="932.381" transform="rotate(135 660 29.293)" fill="url(#paint3_linear_15_488)"/>
<rect x="660" y="39.293" width="1" height="932.381" transform="rotate(135 660 39.293)" fill="url(#paint4_linear_15_488)"/>
<rect x="660" y="49.293" width="1" height="932.381" transform="rotate(135 660 49.293)" fill="url(#paint5_linear_15_488)"/>
<rect x="660" y="59.293" width="1" height="932.381" transform="rotate(135 660 59.293)" fill="url(#paint6_linear_15_488)"/>
<rect x="660" y="69.293" width="1" height="932.381" transform="rotate(135 660 69.293)" fill="url(#paint7_linear_15_488)"/>
<rect x="660" y="79.293" width="1" height="932.381" transform="rotate(135 660 79.293)" fill="url(#paint8_linear_15_488)"/>
<rect x="660" y="89.293" width="1" height="932.381" transform="rotate(135 660 89.293)" fill="url(#paint9_linear_15_488)"/>
<rect x="660" y="99.293" width="1" height="932.381" transform="rotate(135 660 99.293)" fill="url(#paint10_linear_15_488)"/>
<rect x="660" y="109.293" width="1" height="932.381" transform="rotate(135 660 109.293)" fill="url(#paint11_linear_15_488)"/>
<rect x="660" y="119.293" width="1" height="932.381" transform="rotate(135 660 119.293)" fill="url(#paint12_linear_15_488)"/>
<rect x="660" y="129.293" width="1" height="932.381" transform="rotate(135 660 129.293)" fill="url(#paint13_linear_15_488)"/>
<rect x="660" y="139.293" width="1" height="932.381" transform="rotate(135 660 139.293)" fill="url(#paint14_linear_15_488)"/>
<rect x="660" y="149.293" width="1" height="932.381" transform="rotate(135 660 149.293)" fill="url(#paint15_linear_15_488)"/>
<rect x="660" y="159.293" width="1" height="932.381" transform="rotate(135 660 159.293)" fill="url(#paint16_linear_15_488)"/>
<rect x="660" y="169.293" width="1" height="932.381" transform="rotate(135 660 169.293)" fill="url(#paint17_linear_15_488)"/>
<rect x="660" y="179.293" width="1" height="932.381" transform="rotate(135 660 179.293)" fill="url(#paint18_linear_15_488)"/>
<rect x="660" y="189.293" width="1" height="932.381" transform="rotate(135 660 189.293)" fill="url(#paint19_linear_15_488)"/>
<rect x="660" y="199.293" width="1" height="932.381" transform="rotate(135 660 199.293)" fill="url(#paint20_linear_15_488)"/>
<rect x="660" y="209.293" width="1" height="932.381" transform="rotate(135 660 209.293)" fill="url(#paint21_linear_15_488)"/>
<rect x="660" y="219.293" width="1" height="932.381" transform="rotate(135 660 219.293)" fill="url(#paint22_linear_15_488)"/>
<rect x="660" y="229.293" width="1" height="932.381" transform="rotate(135 660 229.293)" fill="url(#paint23_linear_15_488)"/>
<rect x="660" y="239.293" width="1" height="932.381" transform="rotate(135 660 239.293)" fill="url(#paint24_linear_15_488)"/>
<rect x="660" y="249.293" width="1" height="932.381" transform="rotate(135 660 249.293)" fill="url(#paint25_linear_15_488)"/>
<rect x="660" y="259.293" width="1" height="932.381" transform="rotate(135 660 259.293)" fill="url(#paint26_linear_15_488)"/>
<rect x="660" y="269.293" width="1" height="932.381" transform="rotate(135 660 269.293)" fill="url(#paint27_linear_15_488)"/>
<rect x="660" y="279.293" width="1" height="932.381" transform="rotate(135 660 279.293)" fill="url(#paint28_linear_15_488)"/>
<rect x="660" y="289.293" width="1" height="932.381" transform="rotate(135 660 289.293)" fill="url(#paint29_linear_15_488)"/>
<rect x="660" y="299.293" width="1" height="932.381" transform="rotate(135 660 299.293)" fill="url(#paint30_linear_15_488)"/>
<rect x="660" y="309.293" width="1" height="932.381" transform="rotate(135 660 309.293)" fill="url(#paint31_linear_15_488)"/>
<rect x="660" y="319.293" width="1" height="932.381" transform="rotate(135 660 319.293)" fill="url(#paint32_linear_15_488)"/>
<rect x="660" y="329.293" width="1" height="932.381" transform="rotate(135 660 329.293)" fill="url(#paint33_linear_15_488)"/>
<rect x="660" y="339.293" width="1" height="932.381" transform="rotate(135 660 339.293)" fill="url(#paint34_linear_15_488)"/>
<rect x="660" y="349.293" width="1" height="932.381" transform="rotate(135 660 349.293)" fill="url(#paint35_linear_15_488)"/>
<rect x="660" y="359.293" width="1" height="932.381" transform="rotate(135 660 359.293)" fill="url(#paint36_linear_15_488)"/>
<rect x="660" y="369.293" width="1" height="932.381" transform="rotate(135 660 369.293)" fill="url(#paint37_linear_15_488)"/>
<rect x="660" y="379.293" width="1" height="932.381" transform="rotate(135 660 379.293)" fill="url(#paint38_linear_15_488)"/>
<rect x="660" y="389.293" width="1" height="932.381" transform="rotate(135 660 389.293)" fill="url(#paint39_linear_15_488)"/>
<rect x="660" y="399.293" width="1" height="932.381" transform="rotate(135 660 399.293)" fill="url(#paint40_linear_15_488)"/>
<rect x="660" y="409.293" width="1" height="932.381" transform="rotate(135 660 409.293)" fill="url(#paint41_linear_15_488)"/>
<rect x="660" y="419.293" width="1" height="932.381" transform="rotate(135 660 419.293)" fill="url(#paint42_linear_15_488)"/>
<rect x="660" y="429.293" width="1" height="932.381" transform="rotate(135 660 429.293)" fill="url(#paint43_linear_15_488)"/>
<rect x="660" y="439.293" width="1" height="932.381" transform="rotate(135 660 439.293)" fill="url(#paint44_linear_15_488)"/>
<rect x="660" y="449.293" width="1" height="932.381" transform="rotate(135 660 449.293)" fill="url(#paint45_linear_15_488)"/>
<rect x="660" y="459.293" width="1" height="932.381" transform="rotate(135 660 459.293)" fill="url(#paint46_linear_15_488)"/>
<rect x="660" y="469.293" width="1" height="932.381" transform="rotate(135 660 469.293)" fill="url(#paint47_linear_15_488)"/>
<rect x="660" y="479.293" width="1" height="932.381" transform="rotate(135 660 479.293)" fill="url(#paint48_linear_15_488)"/>
<rect x="660" y="489.293" width="1" height="932.381" transform="rotate(135 660 489.293)" fill="url(#paint49_linear_15_488)"/>
<rect x="660" y="499.293" width="1" height="932.381" transform="rotate(135 660 499.293)" fill="url(#paint50_linear_15_488)"/>
<rect x="660" y="509.293" width="1" height="932.381" transform="rotate(135 660 509.293)" fill="url(#paint51_linear_15_488)"/>
<rect x="660" y="519.293" width="1" height="932.381" transform="rotate(135 660 519.293)" fill="url(#paint52_linear_15_488)"/>
<rect x="660" y="529.293" width="1" height="932.381" transform="rotate(135 660 529.293)" fill="url(#paint53_linear_15_488)"/>
<rect x="660" y="539.293" width="1" height="932.381" transform="rotate(135 660 539.293)" fill="url(#paint54_linear_15_488)"/>
<rect x="660" y="549.293" width="1" height="932.381" transform="rotate(135 660 549.293)" fill="url(#paint55_linear_15_488)"/>
<rect x="660" y="559.293" width="1" height="932.381" transform="rotate(135 660 559.293)" fill="url(#paint56_linear_15_488)"/>
<rect x="660" y="569.293" width="1" height="932.381" transform="rotate(135 660 569.293)" fill="url(#paint57_linear_15_488)"/>
<rect x="660" y="579.293" width="1" height="932.381" transform="rotate(135 660 579.293)" fill="url(#paint58_linear_15_488)"/>
<rect x="660" y="589.293" width="1" height="932.381" transform="rotate(135 660 589.293)" fill="url(#paint59_linear_15_488)"/>
<rect x="660" y="599.293" width="1" height="932.381" transform="rotate(135 660 599.293)" fill="url(#paint60_linear_15_488)"/>
<rect x="660" y="609.293" width="1" height="932.381" transform="rotate(135 660 609.293)" fill="url(#paint61_linear_15_488)"/>
<rect x="660" y="619.293" width="1" height="932.381" transform="rotate(135 660 619.293)" fill="url(#paint62_linear_15_488)"/>
<rect x="660" y="629.293" width="1" height="932.381" transform="rotate(135 660 629.293)" fill="url(#paint63_linear_15_488)"/>
<rect x="660" y="639.293" width="1" height="932.381" transform="rotate(135 660 639.293)" fill="url(#paint64_linear_15_488)"/>
<rect x="660" y="649.293" width="1" height="932.381" transform="rotate(135 660 649.293)" fill="url(#paint65_linear_15_488)"/>
<rect x="660" y="659.293" width="1" height="932.381" transform="rotate(135 660 659.293)" fill="url(#paint66_linear_15_488)"/>
<rect x="660" y="669.293" width="1" height="932.381" transform="rotate(135 660 669.293)" fill="url(#paint67_linear_15_488)"/>
<rect x="660" y="679.293" width="1" height="932.381" transform="rotate(135 660 679.293)" fill="url(#paint68_linear_15_488)"/>
<rect x="660" y="689.293" width="1" height="932.381" transform="rotate(135 660 689.293)" fill="url(#paint69_linear_15_488)"/>
<rect x="660" y="699.293" width="1" height="932.381" transform="rotate(135 660 699.293)" fill="url(#paint70_linear_15_488)"/>
<rect x="660" y="709.293" width="1" height="932.381" transform="rotate(135 660 709.293)" fill="url(#paint71_linear_15_488)"/>
<rect x="660" y="719.293" width="1" height="932.381" transform="rotate(135 660 719.293)" fill="url(#paint72_linear_15_488)"/>
<rect x="660" y="729.293" width="1" height="932.381" transform="rotate(135 660 729.293)" fill="url(#paint73_linear_15_488)"/>
<rect x="660" y="739.293" width="1" height="932.381" transform="rotate(135 660 739.293)" fill="url(#paint74_linear_15_488)"/>
<rect x="660" y="749.293" width="1" height="932.381" transform="rotate(135 660 749.293)" fill="url(#paint75_linear_15_488)"/>
<rect x="660" y="759.293" width="1" height="932.381" transform="rotate(135 660 759.293)" fill="url(#paint76_linear_15_488)"/>
<rect x="660" y="769.293" width="1" height="932.381" transform="rotate(135 660 769.293)" fill="url(#paint77_linear_15_488)"/>
<rect x="660" y="779.293" width="1" height="932.381" transform="rotate(135 660 779.293)" fill="url(#paint78_linear_15_488)"/>
<rect x="660" y="789.293" width="1" height="932.381" transform="rotate(135 660 789.293)" fill="url(#paint79_linear_15_488)"/>
<rect x="660" y="799.293" width="1" height="932.381" transform="rotate(135 660 799.293)" fill="url(#paint80_linear_15_488)"/>
<rect x="660" y="809.293" width="1" height="932.381" transform="rotate(135 660 809.293)" fill="url(#paint81_linear_15_488)"/>
<rect x="660" y="819.293" width="1" height="932.381" transform="rotate(135 660 819.293)" fill="url(#paint82_linear_15_488)"/>
<rect x="660" y="829.293" width="1" height="932.381" transform="rotate(135 660 829.293)" fill="url(#paint83_linear_15_488)"/>
<rect x="660" y="839.293" width="1" height="932.381" transform="rotate(135 660 839.293)" fill="url(#paint84_linear_15_488)"/>
<rect x="660" y="849.293" width="1" height="932.381" transform="rotate(135 660 849.293)" fill="url(#paint85_linear_15_488)"/>
<rect x="660" y="859.293" width="1" height="932.381" transform="rotate(135 660 859.293)" fill="url(#paint86_linear_15_488)"/>
<rect x="660" y="869.293" width="1" height="932.381" transform="rotate(135 660 869.293)" fill="url(#paint87_linear_15_488)"/>
<rect x="660" y="879.293" width="1" height="932.381" transform="rotate(135 660 879.293)" fill="url(#paint88_linear_15_488)"/>
<rect x="660" y="889.293" width="1" height="932.381" transform="rotate(135 660 889.293)" fill="url(#paint89_linear_15_488)"/>
<rect x="660" y="899.293" width="1" height="932.381" transform="rotate(135 660 899.293)" fill="url(#paint90_linear_15_488)"/>
<rect x="660" y="909.293" width="1" height="932.381" transform="rotate(135 660 909.293)" fill="url(#paint91_linear_15_488)"/>
<rect x="660" y="919.293" width="1" height="932.381" transform="rotate(135 660 919.293)" fill="url(#paint92_linear_15_488)"/>
<rect x="660" y="929.293" width="1" height="932.381" transform="rotate(135 660 929.293)" fill="url(#paint93_linear_15_488)"/>
<rect x="660" y="939.293" width="1" height="932.381" transform="rotate(135 660 939.293)" fill="url(#paint94_linear_15_488)"/>
<rect x="660" y="949.293" width="1" height="932.381" transform="rotate(135 660 949.293)" fill="url(#paint95_linear_15_488)"/>
<rect x="660" y="959.293" width="1" height="932.381" transform="rotate(135 660 959.293)" fill="url(#paint96_linear_15_488)"/>
<rect x="660" y="969.293" width="1" height="932.381" transform="rotate(135 660 969.293)" fill="url(#paint97_linear_15_488)"/>
<rect x="660" y="979.293" width="1" height="932.381" transform="rotate(135 660 979.293)" fill="url(#paint98_linear_15_488)"/>
<rect x="660" y="989.293" width="1" height="932.381" transform="rotate(135 660 989.293)" fill="url(#paint99_linear_15_488)"/>
<rect x="660" y="999.293" width="1" height="932.381" transform="rotate(135 660 999.293)" fill="url(#paint100_linear_15_488)"/>
<rect x="660" y="1009.29" width="1" height="932.381" transform="rotate(135 660 1009.29)" fill="url(#paint101_linear_15_488)"/>
<rect x="660" y="1019.29" width="1" height="932.381" transform="rotate(135 660 1019.29)" fill="url(#paint102_linear_15_488)"/>
<rect x="660" y="1029.29" width="1" height="932.381" transform="rotate(135 660 1029.29)" fill="url(#paint103_linear_15_488)"/>
<rect x="660" y="1039.29" width="1" height="932.381" transform="rotate(135 660 1039.29)" fill="url(#paint104_linear_15_488)"/>
<rect x="660" y="1049.29" width="1" height="932.381" transform="rotate(135 660 1049.29)" fill="url(#paint105_linear_15_488)"/>
<rect x="660" y="1059.29" width="1" height="932.381" transform="rotate(135 660 1059.29)" fill="url(#paint106_linear_15_488)"/>
<rect x="660" y="1069.29" width="1" height="932.381" transform="rotate(135 660 1069.29)" fill="url(#paint107_linear_15_488)"/>
<rect x="660" y="1079.29" width="1" height="932.381" transform="rotate(135 660 1079.29)" fill="url(#paint108_linear_15_488)"/>
<rect x="660" y="1089.29" width="1" height="932.381" transform="rotate(135 660 1089.29)" fill="url(#paint109_linear_15_488)"/>
<rect x="660" y="1099.29" width="1" height="932.381" transform="rotate(135 660 1099.29)" fill="url(#paint110_linear_15_488)"/>
<rect x="660" y="1109.29" width="1" height="932.381" transform="rotate(135 660 1109.29)" fill="url(#paint111_linear_15_488)"/>
<rect x="660" y="1119.29" width="1" height="932.381" transform="rotate(135 660 1119.29)" fill="url(#paint112_linear_15_488)"/>
<rect x="660" y="1129.29" width="1" height="932.381" transform="rotate(135 660 1129.29)" fill="url(#paint113_linear_15_488)"/>
<rect x="660" y="1139.29" width="1" height="932.381" transform="rotate(135 660 1139.29)" fill="url(#paint114_linear_15_488)"/>
<rect x="660" y="1149.29" width="1" height="932.381" transform="rotate(135 660 1149.29)" fill="url(#paint115_linear_15_488)"/>
<rect x="660" y="1159.29" width="1" height="932.381" transform="rotate(135 660 1159.29)" fill="url(#paint116_linear_15_488)"/>
<rect x="660" y="1169.29" width="1" height="932.381" transform="rotate(135 660 1169.29)" fill="url(#paint117_linear_15_488)"/>
<rect x="660" y="1179.29" width="1" height="932.381" transform="rotate(135 660 1179.29)" fill="url(#paint118_linear_15_488)"/>
<rect x="660" y="1189.29" width="1" height="932.381" transform="rotate(135 660 1189.29)" fill="url(#paint119_linear_15_488)"/>
<rect x="660" y="1199.29" width="1" height="932.381" transform="rotate(135 660 1199.29)" fill="url(#paint120_linear_15_488)"/>
<rect x="660" y="1209.29" width="1" height="932.381" transform="rotate(135 660 1209.29)" fill="url(#paint121_linear_15_488)"/>
<rect x="660" y="1219.29" width="1" height="932.381" transform="rotate(135 660 1219.29)" fill="url(#paint122_linear_15_488)"/>
<rect x="660" y="1229.29" width="1" height="932.381" transform="rotate(135 660 1229.29)" fill="url(#paint123_linear_15_488)"/>
<rect x="660" y="1239.29" width="1" height="932.381" transform="rotate(135 660 1239.29)" fill="url(#paint124_linear_15_488)"/>
<defs>
<linearGradient id="paint0_linear_15_488" x1="660.5" y1="-0.707031" x2="660.5" y2="931.674" gradientUnits="userSpaceOnUse">
<stop stop-color="#1A191D" stop-opacity="0"/>
<stop offset="1" stop-color="#1A191D"/>
</linearGradient>
<linearGradient id="paint1_linear_15_488" x1="660.5" y1="9.29297" x2="660.5" y2="941.674" gradientUnits="userSpaceOnUse">
<stop stop-color="#1A191D" stop-opacity="0"/>
<stop offset="1" stop-color="#1A191D"/>
</linearGradient>
<linearGradient id="paint2_linear_15_488" x1="660.5" y1="19.293" x2="660.5" y2="951.674" gradientUnits="userSpaceOnUse">
<stop stop-color="#1A191D" stop-opacity="0"/>
<stop offset="1" stop-color="#1A191D"/>
</linearGradient>
<linearGradient id="paint3_linear_15_488" x1="660.5" y1="29.293" x2="660.5" y2="961.674" gradientUnits="userSpaceOnUse">
<stop stop-color="#1A191D" stop-opacity="0"/>
<stop offset="1" stop-color="#1A191D"/>
</linearGradient>
<linearGradient id="paint4_linear_15_488" x1="660.5" y1="39.293" x2="660.5" y2="971.674" gradientUnits="userSpaceOnUse">
<stop stop-color="#1A191D" stop-opacity="0"/>
<stop offset="1" stop-color="#1A191D"/>
</linearGradient>
<linearGradient id="paint5_linear_15_488" x1="660.5" y1="49.293" x2="660.5" y2="981.674" gradientUnits="userSpaceOnUse">
<stop stop-color="#1A191D" stop-opacity="0"/>
<stop offset="1" stop-color="#1A191D"/>
</linearGradient>
<linearGradient id="paint6_linear_15_488" x1="660.5" y1="59.293" x2="660.5" y2="991.674" gradientUnits="userSpaceOnUse">
<stop stop-color="#1A191D" stop-opacity="0"/>
<stop offset="1" stop-color="#1A191D"/>
</linearGradient>
<linearGradient id="paint7_linear_15_488" x1="660.5" y1="69.293" x2="660.5" y2="1001.67" gradientUnits="userSpaceOnUse">
<stop stop-color="#1A191D" stop-opacity="0"/>
<stop offset="1" stop-color="#1A191D"/>
</linearGradient>
<linearGradient id="paint8_linear_15_488" x1="660.5" y1="79.293" x2="660.5" y2="1011.67" gradientUnits="userSpaceOnUse">
<stop stop-color="#1A191D" stop-opacity="0"/>
<stop offset="1" stop-color="#1A191D"/>
</linearGradient>
<linearGradient id="paint9_linear_15_488" x1="660.5" y1="89.293" x2="660.5" y2="1021.67" gradientUnits="userSpaceOnUse">
<stop stop-color="#1A191D" stop-opacity="0"/>
<stop offset="1" stop-color="#1A191D"/>
</linearGradient>
<linearGradient id="paint10_linear_15_488" x1="660.5" y1="99.293" x2="660.5" y2="1031.67" gradientUnits="userSpaceOnUse">
<stop stop-color="#1A191D" stop-opacity="0"/>
<stop offset="1" stop-color="#1A191D"/>
</linearGradient>
<linearGradient id="paint11_linear_15_488" x1="660.5" y1="109.293" x2="660.5" y2="1041.67" gradientUnits="userSpaceOnUse">
<stop stop-color="#1A191D" stop-opacity="0"/>
<stop offset="1" stop-color="#1A191D"/>
</linearGradient>
<linearGradient id="paint12_linear_15_488" x1="660.5" y1="119.293" x2="660.5" y2="1051.67" gradientUnits="userSpaceOnUse">
<stop stop-color="#1A191D" stop-opacity="0"/>
<stop offset="1" stop-color="#1A191D"/>
</linearGradient>
<linearGradient id="paint13_linear_15_488" x1="660.5" y1="129.293" x2="660.5" y2="1061.67" gradientUnits="userSpaceOnUse">
<stop stop-color="#1A191D" stop-opacity="0"/>
<stop offset="1" stop-color="#1A191D"/>
</linearGradient>
<linearGradient id="paint14_linear_15_488" x1="660.5" y1="139.293" x2="660.5" y2="1071.67" gradientUnits="userSpaceOnUse">
<stop stop-color="#1A191D" stop-opacity="0"/>
<stop offset="1" stop-color="#1A191D"/>
</linearGradient>
<linearGradient id="paint15_linear_15_488" x1="660.5" y1="149.293" x2="660.5" y2="1081.67" gradientUnits="userSpaceOnUse">
<stop stop-color="#1A191D" stop-opacity="0"/>
<stop offset="1" stop-color="#1A191D"/>
</linearGradient>
<linearGradient id="paint16_linear_15_488" x1="660.5" y1="159.293" x2="660.5" y2="1091.67" gradientUnits="userSpaceOnUse">
<stop stop-color="#1A191D" stop-opacity="0"/>
<stop offset="1" stop-color="#1A191D"/>
</linearGradient>
<linearGradient id="paint17_linear_15_488" x1="660.5" y1="169.293" x2="660.5" y2="1101.67" gradientUnits="userSpaceOnUse">
<stop stop-color="#1A191D" stop-opacity="0"/>
<stop offset="1" stop-color="#1A191D"/>
</linearGradient>
<linearGradient id="paint18_linear_15_488" x1="660.5" y1="179.293" x2="660.5" y2="1111.67" gradientUnits="userSpaceOnUse">
<stop stop-color="#1A191D" stop-opacity="0"/>
<stop offset="1" stop-color="#1A191D"/>
</linearGradient>
<linearGradient id="paint19_linear_15_488" x1="660.5" y1="189.293" x2="660.5" y2="1121.67" gradientUnits="userSpaceOnUse">
<stop stop-color="#1A191D" stop-opacity="0"/>
<stop offset="1" stop-color="#1A191D"/>
</linearGradient>
<linearGradient id="paint20_linear_15_488" x1="660.5" y1="199.293" x2="660.5" y2="1131.67" gradientUnits="userSpaceOnUse">
<stop stop-color="#1A191D" stop-opacity="0"/>
<stop offset="1" stop-color="#1A191D"/>
</linearGradient>
<linearGradient id="paint21_linear_15_488" x1="660.5" y1="209.293" x2="660.5" y2="1141.67" gradientUnits="userSpaceOnUse">
<stop stop-color="#1A191D" stop-opacity="0"/>
<stop offset="1" stop-color="#1A191D"/>
</linearGradient>
<linearGradient id="paint22_linear_15_488" x1="660.5" y1="219.293" x2="660.5" y2="1151.67" gradientUnits="userSpaceOnUse">
<stop stop-color="#1A191D" stop-opacity="0"/>
<stop offset="1" stop-color="#1A191D"/>
</linearGradient>
<linearGradient id="paint23_linear_15_488" x1="660.5" y1="229.293" x2="660.5" y2="1161.67" gradientUnits="userSpaceOnUse">
<stop stop-color="#1A191D" stop-opacity="0"/>
<stop offset="1" stop-color="#1A191D"/>
</linearGradient>
<linearGradient id="paint24_linear_15_488" x1="660.5" y1="239.293" x2="660.5" y2="1171.67" gradientUnits="userSpaceOnUse">
<stop stop-color="#1A191D" stop-opacity="0"/>
<stop offset="1" stop-color="#1A191D"/>
</linearGradient>
<linearGradient id="paint25_linear_15_488" x1="660.5" y1="249.293" x2="660.5" y2="1181.67" gradientUnits="userSpaceOnUse">
<stop stop-color="#1A191D" stop-opacity="0"/>
<stop offset="1" stop-color="#1A191D"/>
</linearGradient>
<linearGradient id="paint26_linear_15_488" x1="660.5" y1="259.293" x2="660.5" y2="1191.67" gradientUnits="userSpaceOnUse">
<stop stop-color="#1A191D" stop-opacity="0"/>
<stop offset="1" stop-color="#1A191D"/>
</linearGradient>
<linearGradient id="paint27_linear_15_488" x1="660.5" y1="269.293" x2="660.5" y2="1201.67" gradientUnits="userSpaceOnUse">
<stop stop-color="#1A191D" stop-opacity="0"/>
<stop offset="1" stop-color="#1A191D"/>
</linearGradient>
<linearGradient id="paint28_linear_15_488" x1="660.5" y1="279.293" x2="660.5" y2="1211.67" gradientUnits="userSpaceOnUse">
<stop stop-color="#1A191D" stop-opacity="0"/>
<stop offset="1" stop-color="#1A191D"/>
</linearGradient>
<linearGradient id="paint29_linear_15_488" x1="660.5" y1="289.293" x2="660.5" y2="1221.67" gradientUnits="userSpaceOnUse">
<stop stop-color="#1A191D" stop-opacity="0"/>
<stop offset="1" stop-color="#1A191D"/>
</linearGradient>
<linearGradient id="paint30_linear_15_488" x1="660.5" y1="299.293" x2="660.5" y2="1231.67" gradientUnits="userSpaceOnUse">
<stop stop-color="#1A191D" stop-opacity="0"/>
<stop offset="1" stop-color="#1A191D"/>
</linearGradient>
<linearGradient id="paint31_linear_15_488" x1="660.5" y1="309.293" x2="660.5" y2="1241.67" gradientUnits="userSpaceOnUse">
<stop stop-color="#1A191D" stop-opacity="0"/>
<stop offset="1" stop-color="#1A191D"/>
</linearGradient>
<linearGradient id="paint32_linear_15_488" x1="660.5" y1="319.293" x2="660.5" y2="1251.67" gradientUnits="userSpaceOnUse">
<stop stop-color="#1A191D" stop-opacity="0"/>
<stop offset="1" stop-color="#1A191D"/>
</linearGradient>
<linearGradient id="paint33_linear_15_488" x1="660.5" y1="329.293" x2="660.5" y2="1261.67" gradientUnits="userSpaceOnUse">
<stop stop-color="#1A191D" stop-opacity="0"/>
<stop offset="1" stop-color="#1A191D"/>
</linearGradient>
<linearGradient id="paint34_linear_15_488" x1="660.5" y1="339.293" x2="660.5" y2="1271.67" gradientUnits="userSpaceOnUse">
<stop stop-color="#1A191D" stop-opacity="0"/>
<stop offset="1" stop-color="#1A191D"/>
</linearGradient>
<linearGradient id="paint35_linear_15_488" x1="660.5" y1="349.293" x2="660.5" y2="1281.67" gradientUnits="userSpaceOnUse">
<stop stop-color="#1A191D" stop-opacity="0"/>
<stop offset="1" stop-color="#1A191D"/>
</linearGradient>
<linearGradient id="paint36_linear_15_488" x1="660.5" y1="359.293" x2="660.5" y2="1291.67" gradientUnits="userSpaceOnUse">
<stop stop-color="#1A191D" stop-opacity="0"/>
<stop offset="1" stop-color="#1A191D"/>
</linearGradient>
<linearGradient id="paint37_linear_15_488" x1="660.5" y1="369.293" x2="660.5" y2="1301.67" gradientUnits="userSpaceOnUse">
<stop stop-color="#1A191D" stop-opacity="0"/>
<stop offset="1" stop-color="#1A191D"/>
</linearGradient>
<linearGradient id="paint38_linear_15_488" x1="660.5" y1="379.293" x2="660.5" y2="1311.67" gradientUnits="userSpaceOnUse">
<stop stop-color="#1A191D" stop-opacity="0"/>
<stop offset="1" stop-color="#1A191D"/>
</linearGradient>
<linearGradient id="paint39_linear_15_488" x1="660.5" y1="389.293" x2="660.5" y2="1321.67" gradientUnits="userSpaceOnUse">
<stop stop-color="#1A191D" stop-opacity="0"/>
<stop offset="1" stop-color="#1A191D"/>
</linearGradient>
<linearGradient id="paint40_linear_15_488" x1="660.5" y1="399.293" x2="660.5" y2="1331.67" gradientUnits="userSpaceOnUse">
<stop stop-color="#1A191D" stop-opacity="0"/>
<stop offset="1" stop-color="#1A191D"/>
</linearGradient>
<linearGradient id="paint41_linear_15_488" x1="660.5" y1="409.293" x2="660.5" y2="1341.67" gradientUnits="userSpaceOnUse">
<stop stop-color="#1A191D" stop-opacity="0"/>
<stop offset="1" stop-color="#1A191D"/>
</linearGradient>
<linearGradient id="paint42_linear_15_488" x1="660.5" y1="419.293" x2="660.5" y2="1351.67" gradientUnits="userSpaceOnUse">
<stop stop-color="#1A191D" stop-opacity="0"/>
<stop offset="1" stop-color="#1A191D"/>
</linearGradient>
<linearGradient id="paint43_linear_15_488" x1="660.5" y1="429.293" x2="660.5" y2="1361.67" gradientUnits="userSpaceOnUse">
<stop stop-color="#1A191D" stop-opacity="0"/>
<stop offset="1" stop-color="#1A191D"/>
</linearGradient>
<linearGradient id="paint44_linear_15_488" x1="660.5" y1="439.293" x2="660.5" y2="1371.67" gradientUnits="userSpaceOnUse">
<stop stop-color="#1A191D" stop-opacity="0"/>
<stop offset="1" stop-color="#1A191D"/>
</linearGradient>
<linearGradient id="paint45_linear_15_488" x1="660.5" y1="449.293" x2="660.5" y2="1381.67" gradientUnits="userSpaceOnUse">
<stop stop-color="#1A191D" stop-opacity="0"/>
<stop offset="1" stop-color="#1A191D"/>
</linearGradient>
<linearGradient id="paint46_linear_15_488" x1="660.5" y1="459.293" x2="660.5" y2="1391.67" gradientUnits="userSpaceOnUse">
<stop stop-color="#1A191D" stop-opacity="0"/>
<stop offset="1" stop-color="#1A191D"/>
</linearGradient>
<linearGradient id="paint47_linear_15_488" x1="660.5" y1="469.293" x2="660.5" y2="1401.67" gradientUnits="userSpaceOnUse">
<stop stop-color="#1A191D" stop-opacity="0"/>
<stop offset="1" stop-color="#1A191D"/>
</linearGradient>
<linearGradient id="paint48_linear_15_488" x1="660.5" y1="479.293" x2="660.5" y2="1411.67" gradientUnits="userSpaceOnUse">
<stop stop-color="#1A191D" stop-opacity="0"/>
<stop offset="1" stop-color="#1A191D"/>
</linearGradient>
<linearGradient id="paint49_linear_15_488" x1="660.5" y1="489.293" x2="660.5" y2="1421.67" gradientUnits="userSpaceOnUse">
<stop stop-color="#1A191D" stop-opacity="0"/>
<stop offset="1" stop-color="#1A191D"/>
</linearGradient>
<linearGradient id="paint50_linear_15_488" x1="660.5" y1="499.293" x2="660.5" y2="1431.67" gradientUnits="userSpaceOnUse">
<stop stop-color="#1A191D" stop-opacity="0"/>
<stop offset="1" stop-color="#1A191D"/>
</linearGradient>
<linearGradient id="paint51_linear_15_488" x1="660.5" y1="509.293" x2="660.5" y2="1441.67" gradientUnits="userSpaceOnUse">
<stop stop-color="#1A191D" stop-opacity="0"/>
<stop offset="1" stop-color="#1A191D"/>
</linearGradient>
<linearGradient id="paint52_linear_15_488" x1="660.5" y1="519.293" x2="660.5" y2="1451.67" gradientUnits="userSpaceOnUse">
<stop stop-color="#1A191D" stop-opacity="0"/>
<stop offset="1" stop-color="#1A191D"/>
</linearGradient>
<linearGradient id="paint53_linear_15_488" x1="660.5" y1="529.293" x2="660.5" y2="1461.67" gradientUnits="userSpaceOnUse">
<stop stop-color="#1A191D" stop-opacity="0"/>
<stop offset="1" stop-color="#1A191D"/>
</linearGradient>
<linearGradient id="paint54_linear_15_488" x1="660.5" y1="539.293" x2="660.5" y2="1471.67" gradientUnits="userSpaceOnUse">
<stop stop-color="#1A191D" stop-opacity="0"/>
<stop offset="1" stop-color="#1A191D"/>
</linearGradient>
<linearGradient id="paint55_linear_15_488" x1="660.5" y1="549.293" x2="660.5" y2="1481.67" gradientUnits="userSpaceOnUse">
<stop stop-color="#1A191D" stop-opacity="0"/>
<stop offset="1" stop-color="#1A191D"/>
</linearGradient>
<linearGradient id="paint56_linear_15_488" x1="660.5" y1="559.293" x2="660.5" y2="1491.67" gradientUnits="userSpaceOnUse">
<stop stop-color="#1A191D" stop-opacity="0"/>
<stop offset="1" stop-color="#1A191D"/>
</linearGradient>
<linearGradient id="paint57_linear_15_488" x1="660.5" y1="569.293" x2="660.5" y2="1501.67" gradientUnits="userSpaceOnUse">
<stop stop-color="#1A191D" stop-opacity="0"/>
<stop offset="1" stop-color="#1A191D"/>
</linearGradient>
<linearGradient id="paint58_linear_15_488" x1="660.5" y1="579.293" x2="660.5" y2="1511.67" gradientUnits="userSpaceOnUse">
<stop stop-color="#1A191D" stop-opacity="0"/>
<stop offset="1" stop-color="#1A191D"/>
</linearGradient>
<linearGradient id="paint59_linear_15_488" x1="660.5" y1="589.293" x2="660.5" y2="1521.67" gradientUnits="userSpaceOnUse">
<stop stop-color="#1A191D" stop-opacity="0"/>
<stop offset="1" stop-color="#1A191D"/>
</linearGradient>
<linearGradient id="paint60_linear_15_488" x1="660.5" y1="599.293" x2="660.5" y2="1531.67" gradientUnits="userSpaceOnUse">
<stop stop-color="#1A191D" stop-opacity="0"/>
<stop offset="1" stop-color="#1A191D"/>
</linearGradient>
<linearGradient id="paint61_linear_15_488" x1="660.5" y1="609.293" x2="660.5" y2="1541.67" gradientUnits="userSpaceOnUse">
<stop stop-color="#1A191D" stop-opacity="0"/>
<stop offset="1" stop-color="#1A191D"/>
</linearGradient>
<linearGradient id="paint62_linear_15_488" x1="660.5" y1="619.293" x2="660.5" y2="1551.67" gradientUnits="userSpaceOnUse">
<stop stop-color="#1A191D" stop-opacity="0"/>
<stop offset="1" stop-color="#1A191D"/>
</linearGradient>
<linearGradient id="paint63_linear_15_488" x1="660.5" y1="629.293" x2="660.5" y2="1561.67" gradientUnits="userSpaceOnUse">
<stop stop-color="#1A191D" stop-opacity="0"/>
<stop offset="1" stop-color="#1A191D"/>
</linearGradient>
<linearGradient id="paint64_linear_15_488" x1="660.5" y1="639.293" x2="660.5" y2="1571.67" gradientUnits="userSpaceOnUse">
<stop stop-color="#1A191D" stop-opacity="0"/>
<stop offset="1" stop-color="#1A191D"/>
</linearGradient>
<linearGradient id="paint65_linear_15_488" x1="660.5" y1="649.293" x2="660.5" y2="1581.67" gradientUnits="userSpaceOnUse">
<stop stop-color="#1A191D" stop-opacity="0"/>
<stop offset="1" stop-color="#1A191D"/>
</linearGradient>
<linearGradient id="paint66_linear_15_488" x1="660.5" y1="659.293" x2="660.5" y2="1591.67" gradientUnits="userSpaceOnUse">
<stop stop-color="#1A191D" stop-opacity="0"/>
<stop offset="1" stop-color="#1A191D"/>
</linearGradient>
<linearGradient id="paint67_linear_15_488" x1="660.5" y1="669.293" x2="660.5" y2="1601.67" gradientUnits="userSpaceOnUse">
<stop stop-color="#1A191D" stop-opacity="0"/>
<stop offset="1" stop-color="#1A191D"/>
</linearGradient>
<linearGradient id="paint68_linear_15_488" x1="660.5" y1="679.293" x2="660.5" y2="1611.67" gradientUnits="userSpaceOnUse">
<stop stop-color="#1A191D" stop-opacity="0"/>
<stop offset="1" stop-color="#1A191D"/>
</linearGradient>
<linearGradient id="paint69_linear_15_488" x1="660.5" y1="689.293" x2="660.5" y2="1621.67" gradientUnits="userSpaceOnUse">
<stop stop-color="#1A191D" stop-opacity="0"/>
<stop offset="1" stop-color="#1A191D"/>
</linearGradient>
<linearGradient id="paint70_linear_15_488" x1="660.5" y1="699.293" x2="660.5" y2="1631.67" gradientUnits="userSpaceOnUse">
<stop stop-color="#1A191D" stop-opacity="0"/>
<stop offset="1" stop-color="#1A191D"/>
</linearGradient>
<linearGradient id="paint71_linear_15_488" x1="660.5" y1="709.293" x2="660.5" y2="1641.67" gradientUnits="userSpaceOnUse">
<stop stop-color="#1A191D" stop-opacity="0"/>
<stop offset="1" stop-color="#1A191D"/>
</linearGradient>
<linearGradient id="paint72_linear_15_488" x1="660.5" y1="719.293" x2="660.5" y2="1651.67" gradientUnits="userSpaceOnUse">
<stop stop-color="#1A191D" stop-opacity="0"/>
<stop offset="1" stop-color="#1A191D"/>
</linearGradient>
<linearGradient id="paint73_linear_15_488" x1="660.5" y1="729.293" x2="660.5" y2="1661.67" gradientUnits="userSpaceOnUse">
<stop stop-color="#1A191D" stop-opacity="0"/>
<stop offset="1" stop-color="#1A191D"/>
</linearGradient>
<linearGradient id="paint74_linear_15_488" x1="660.5" y1="739.293" x2="660.5" y2="1671.67" gradientUnits="userSpaceOnUse">
<stop stop-color="#1A191D" stop-opacity="0"/>
<stop offset="1" stop-color="#1A191D"/>
</linearGradient>
<linearGradient id="paint75_linear_15_488" x1="660.5" y1="749.293" x2="660.5" y2="1681.67" gradientUnits="userSpaceOnUse">
<stop stop-color="#1A191D" stop-opacity="0"/>
<stop offset="1" stop-color="#1A191D"/>
</linearGradient>
<linearGradient id="paint76_linear_15_488" x1="660.5" y1="759.293" x2="660.5" y2="1691.67" gradientUnits="userSpaceOnUse">
<stop stop-color="#1A191D" stop-opacity="0"/>
<stop offset="1" stop-color="#1A191D"/>
</linearGradient>
<linearGradient id="paint77_linear_15_488" x1="660.5" y1="769.293" x2="660.5" y2="1701.67" gradientUnits="userSpaceOnUse">
<stop stop-color="#1A191D" stop-opacity="0"/>
<stop offset="1" stop-color="#1A191D"/>
</linearGradient>
<linearGradient id="paint78_linear_15_488" x1="660.5" y1="779.293" x2="660.5" y2="1711.67" gradientUnits="userSpaceOnUse">
<stop stop-color="#1A191D" stop-opacity="0"/>
<stop offset="1" stop-color="#1A191D"/>
</linearGradient>
<linearGradient id="paint79_linear_15_488" x1="660.5" y1="789.293" x2="660.5" y2="1721.67" gradientUnits="userSpaceOnUse">
<stop stop-color="#1A191D" stop-opacity="0"/>
<stop offset="1" stop-color="#1A191D"/>
</linearGradient>
<linearGradient id="paint80_linear_15_488" x1="660.5" y1="799.293" x2="660.5" y2="1731.67" gradientUnits="userSpaceOnUse">
<stop stop-color="#1A191D" stop-opacity="0"/>
<stop offset="1" stop-color="#1A191D"/>
</linearGradient>
<linearGradient id="paint81_linear_15_488" x1="660.5" y1="809.293" x2="660.5" y2="1741.67" gradientUnits="userSpaceOnUse">
<stop stop-color="#1A191D" stop-opacity="0"/>
<stop offset="1" stop-color="#1A191D"/>
</linearGradient>
<linearGradient id="paint82_linear_15_488" x1="660.5" y1="819.293" x2="660.5" y2="1751.67" gradientUnits="userSpaceOnUse">
<stop stop-color="#1A191D" stop-opacity="0"/>
<stop offset="1" stop-color="#1A191D"/>
</linearGradient>
<linearGradient id="paint83_linear_15_488" x1="660.5" y1="829.293" x2="660.5" y2="1761.67" gradientUnits="userSpaceOnUse">
<stop stop-color="#1A191D" stop-opacity="0"/>
<stop offset="1" stop-color="#1A191D"/>
</linearGradient>
<linearGradient id="paint84_linear_15_488" x1="660.5" y1="839.293" x2="660.5" y2="1771.67" gradientUnits="userSpaceOnUse">
<stop stop-color="#1A191D" stop-opacity="0"/>
<stop offset="1" stop-color="#1A191D"/>
</linearGradient>
<linearGradient id="paint85_linear_15_488" x1="660.5" y1="849.293" x2="660.5" y2="1781.67" gradientUnits="userSpaceOnUse">
<stop stop-color="#1A191D" stop-opacity="0"/>
<stop offset="1" stop-color="#1A191D"/>
</linearGradient>
<linearGradient id="paint86_linear_15_488" x1="660.5" y1="859.293" x2="660.5" y2="1791.67" gradientUnits="userSpaceOnUse">
<stop stop-color="#1A191D" stop-opacity="0"/>
<stop offset="1" stop-color="#1A191D"/>
</linearGradient>
<linearGradient id="paint87_linear_15_488" x1="660.5" y1="869.293" x2="660.5" y2="1801.67" gradientUnits="userSpaceOnUse">
<stop stop-color="#1A191D" stop-opacity="0"/>
<stop offset="1" stop-color="#1A191D"/>
</linearGradient>
<linearGradient id="paint88_linear_15_488" x1="660.5" y1="879.293" x2="660.5" y2="1811.67" gradientUnits="userSpaceOnUse">
<stop stop-color="#1A191D" stop-opacity="0"/>
<stop offset="1" stop-color="#1A191D"/>
</linearGradient>
<linearGradient id="paint89_linear_15_488" x1="660.5" y1="889.293" x2="660.5" y2="1821.67" gradientUnits="userSpaceOnUse">
<stop stop-color="#1A191D" stop-opacity="0"/>
<stop offset="1" stop-color="#1A191D"/>
</linearGradient>
<linearGradient id="paint90_linear_15_488" x1="660.5" y1="899.293" x2="660.5" y2="1831.67" gradientUnits="userSpaceOnUse">
<stop stop-color="#1A191D" stop-opacity="0"/>
<stop offset="1" stop-color="#1A191D"/>
</linearGradient>
<linearGradient id="paint91_linear_15_488" x1="660.5" y1="909.293" x2="660.5" y2="1841.67" gradientUnits="userSpaceOnUse">
<stop stop-color="#1A191D" stop-opacity="0"/>
<stop offset="1" stop-color="#1A191D"/>
</linearGradient>
<linearGradient id="paint92_linear_15_488" x1="660.5" y1="919.293" x2="660.5" y2="1851.67" gradientUnits="userSpaceOnUse">
<stop stop-color="#1A191D" stop-opacity="0"/>
<stop offset="1" stop-color="#1A191D"/>
</linearGradient>
<linearGradient id="paint93_linear_15_488" x1="660.5" y1="929.293" x2="660.5" y2="1861.67" gradientUnits="userSpaceOnUse">
<stop stop-color="#1A191D" stop-opacity="0"/>
<stop offset="1" stop-color="#1A191D"/>
</linearGradient>
<linearGradient id="paint94_linear_15_488" x1="660.5" y1="939.293" x2="660.5" y2="1871.67" gradientUnits="userSpaceOnUse">
<stop stop-color="#1A191D" stop-opacity="0"/>
<stop offset="1" stop-color="#1A191D"/>
</linearGradient>
<linearGradient id="paint95_linear_15_488" x1="660.5" y1="949.293" x2="660.5" y2="1881.67" gradientUnits="userSpaceOnUse">
<stop stop-color="#1A191D" stop-opacity="0"/>
<stop offset="1" stop-color="#1A191D"/>
</linearGradient>
<linearGradient id="paint96_linear_15_488" x1="660.5" y1="959.293" x2="660.5" y2="1891.67" gradientUnits="userSpaceOnUse">
<stop stop-color="#1A191D" stop-opacity="0"/>
<stop offset="1" stop-color="#1A191D"/>
</linearGradient>
<linearGradient id="paint97_linear_15_488" x1="660.5" y1="969.293" x2="660.5" y2="1901.67" gradientUnits="userSpaceOnUse">
<stop stop-color="#1A191D" stop-opacity="0"/>
<stop offset="1" stop-color="#1A191D"/>
</linearGradient>
<linearGradient id="paint98_linear_15_488" x1="660.5" y1="979.293" x2="660.5" y2="1911.67" gradientUnits="userSpaceOnUse">
<stop stop-color="#1A191D" stop-opacity="0"/>
<stop offset="1" stop-color="#1A191D"/>
</linearGradient>
<linearGradient id="paint99_linear_15_488" x1="660.5" y1="989.293" x2="660.5" y2="1921.67" gradientUnits="userSpaceOnUse">
<stop stop-color="#1A191D" stop-opacity="0"/>
<stop offset="1" stop-color="#1A191D"/>
</linearGradient>
<linearGradient id="paint100_linear_15_488" x1="660.5" y1="999.293" x2="660.5" y2="1931.67" gradientUnits="userSpaceOnUse">
<stop stop-color="#1A191D" stop-opacity="0"/>
<stop offset="1" stop-color="#1A191D"/>
</linearGradient>
<linearGradient id="paint101_linear_15_488" x1="660.5" y1="1009.29" x2="660.5" y2="1941.67" gradientUnits="userSpaceOnUse">
<stop stop-color="#1A191D" stop-opacity="0"/>
<stop offset="1" stop-color="#1A191D"/>
</linearGradient>
<linearGradient id="paint102_linear_15_488" x1="660.5" y1="1019.29" x2="660.5" y2="1951.67" gradientUnits="userSpaceOnUse">
<stop stop-color="#1A191D" stop-opacity="0"/>
<stop offset="1" stop-color="#1A191D"/>
</linearGradient>
<linearGradient id="paint103_linear_15_488" x1="660.5" y1="1029.29" x2="660.5" y2="1961.67" gradientUnits="userSpaceOnUse">
<stop stop-color="#1A191D" stop-opacity="0"/>
<stop offset="1" stop-color="#1A191D"/>
</linearGradient>
<linearGradient id="paint104_linear_15_488" x1="660.5" y1="1039.29" x2="660.5" y2="1971.67" gradientUnits="userSpaceOnUse">
<stop stop-color="#1A191D" stop-opacity="0"/>
<stop offset="1" stop-color="#1A191D"/>
</linearGradient>
<linearGradient id="paint105_linear_15_488" x1="660.5" y1="1049.29" x2="660.5" y2="1981.67" gradientUnits="userSpaceOnUse">
<stop stop-color="#1A191D" stop-opacity="0"/>
<stop offset="1" stop-color="#1A191D"/>
</linearGradient>
<linearGradient id="paint106_linear_15_488" x1="660.5" y1="1059.29" x2="660.5" y2="1991.67" gradientUnits="userSpaceOnUse">
<stop stop-color="#1A191D" stop-opacity="0"/>
<stop offset="1" stop-color="#1A191D"/>
</linearGradient>
<linearGradient id="paint107_linear_15_488" x1="660.5" y1="1069.29" x2="660.5" y2="2001.67" gradientUnits="userSpaceOnUse">
<stop stop-color="#1A191D" stop-opacity="0"/>
<stop offset="1" stop-color="#1A191D"/>
</linearGradient>
<linearGradient id="paint108_linear_15_488" x1="660.5" y1="1079.29" x2="660.5" y2="2011.67" gradientUnits="userSpaceOnUse">
<stop stop-color="#1A191D" stop-opacity="0"/>
<stop offset="1" stop-color="#1A191D"/>
</linearGradient>
<linearGradient id="paint109_linear_15_488" x1="660.5" y1="1089.29" x2="660.5" y2="2021.67" gradientUnits="userSpaceOnUse">
<stop stop-color="#1A191D" stop-opacity="0"/>
<stop offset="1" stop-color="#1A191D"/>
</linearGradient>
<linearGradient id="paint110_linear_15_488" x1="660.5" y1="1099.29" x2="660.5" y2="2031.67" gradientUnits="userSpaceOnUse">
<stop stop-color="#1A191D" stop-opacity="0"/>
<stop offset="1" stop-color="#1A191D"/>
</linearGradient>
<linearGradient id="paint111_linear_15_488" x1="660.5" y1="1109.29" x2="660.5" y2="2041.67" gradientUnits="userSpaceOnUse">
<stop stop-color="#1A191D" stop-opacity="0"/>
<stop offset="1" stop-color="#1A191D"/>
</linearGradient>
<linearGradient id="paint112_linear_15_488" x1="660.5" y1="1119.29" x2="660.5" y2="2051.67" gradientUnits="userSpaceOnUse">
<stop stop-color="#1A191D" stop-opacity="0"/>
<stop offset="1" stop-color="#1A191D"/>
</linearGradient>
<linearGradient id="paint113_linear_15_488" x1="660.5" y1="1129.29" x2="660.5" y2="2061.67" gradientUnits="userSpaceOnUse">
<stop stop-color="#1A191D" stop-opacity="0"/>
<stop offset="1" stop-color="#1A191D"/>
</linearGradient>
<linearGradient id="paint114_linear_15_488" x1="660.5" y1="1139.29" x2="660.5" y2="2071.67" gradientUnits="userSpaceOnUse">
<stop stop-color="#1A191D" stop-opacity="0"/>
<stop offset="1" stop-color="#1A191D"/>
</linearGradient>
<linearGradient id="paint115_linear_15_488" x1="660.5" y1="1149.29" x2="660.5" y2="2081.67" gradientUnits="userSpaceOnUse">
<stop stop-color="#1A191D" stop-opacity="0"/>
<stop offset="1" stop-color="#1A191D"/>
</linearGradient>
<linearGradient id="paint116_linear_15_488" x1="660.5" y1="1159.29" x2="660.5" y2="2091.67" gradientUnits="userSpaceOnUse">
<stop stop-color="#1A191D" stop-opacity="0"/>
<stop offset="1" stop-color="#1A191D"/>
</linearGradient>
<linearGradient id="paint117_linear_15_488" x1="660.5" y1="1169.29" x2="660.5" y2="2101.67" gradientUnits="userSpaceOnUse">
<stop stop-color="#1A191D" stop-opacity="0"/>
<stop offset="1" stop-color="#1A191D"/>
</linearGradient>
<linearGradient id="paint118_linear_15_488" x1="660.5" y1="1179.29" x2="660.5" y2="2111.67" gradientUnits="userSpaceOnUse">
<stop stop-color="#1A191D" stop-opacity="0"/>
<stop offset="1" stop-color="#1A191D"/>
</linearGradient>
<linearGradient id="paint119_linear_15_488" x1="660.5" y1="1189.29" x2="660.5" y2="2121.67" gradientUnits="userSpaceOnUse">
<stop stop-color="#1A191D" stop-opacity="0"/>
<stop offset="1" stop-color="#1A191D"/>
</linearGradient>
<linearGradient id="paint120_linear_15_488" x1="660.5" y1="1199.29" x2="660.5" y2="2131.67" gradientUnits="userSpaceOnUse">
<stop stop-color="#1A191D" stop-opacity="0"/>
<stop offset="1" stop-color="#1A191D"/>
</linearGradient>
<linearGradient id="paint121_linear_15_488" x1="660.5" y1="1209.29" x2="660.5" y2="2141.67" gradientUnits="userSpaceOnUse">
<stop stop-color="#1A191D" stop-opacity="0"/>
<stop offset="1" stop-color="#1A191D"/>
</linearGradient>
<linearGradient id="paint122_linear_15_488" x1="660.5" y1="1219.29" x2="660.5" y2="2151.67" gradientUnits="userSpaceOnUse">
<stop stop-color="#1A191D" stop-opacity="0"/>
<stop offset="1" stop-color="#1A191D"/>
</linearGradient>
<linearGradient id="paint123_linear_15_488" x1="660.5" y1="1229.29" x2="660.5" y2="2161.67" gradientUnits="userSpaceOnUse">
<stop stop-color="#1A191D" stop-opacity="0"/>
<stop offset="1" stop-color="#1A191D"/>
</linearGradient>
<linearGradient id="paint124_linear_15_488" x1="660.5" y1="1239.29" x2="660.5" y2="2171.67" gradientUnits="userSpaceOnUse">
<stop stop-color="#1A191D" stop-opacity="0"/>
<stop offset="1" stop-color="#1A191D"/>
</linearGradient>
</defs>
</svg>
