<svg width="184" height="34" viewBox="0 0 184 34" fill="none" xmlns="http://www.w3.org/2000/svg">
<path d="M91.2552 25.2366H95.3398V12.4986H111.895V8.83521H91.2552V25.2366Z" fill="white"/>
<path d="M109.396 15.2042H96.5652V18.8676H109.396V15.2042Z" fill="white"/>
<path d="M136.642 17.0479C136.642 21.5733 140.343 25.2606 144.884 25.2606H158.988V21.5972H144.884C142.601 21.5972 140.727 19.3465 140.727 17.0719C140.727 14.7972 142.577 12.5465 144.884 12.5465H158.988V8.88315H144.884C140.343 8.83526 136.642 12.5226 136.642 17.0479Z" fill="white"/>
<path d="M142.265 17.0479C142.265 18.1014 143.106 18.8916 144.163 18.8916H156.489V15.2282H144.163C143.106 15.2042 142.265 15.9944 142.265 17.0479Z" fill="white"/>
<path d="M45.4113 8.83521H41.3267V25.2366H45.4113V18.8676H57.8573V15.2042H45.4113V8.83521Z" fill="white"/>
<path d="M63.1914 8.83521H59.1068V25.2366H63.1914V8.83521Z" fill="white"/>
<path d="M175.759 17.1198H166.172V20.7831H175.759C178.041 20.7831 179.915 22.962 179.915 25.2367H184C184 20.7113 180.3 17.1198 175.759 17.1198Z" fill="white"/>
<path d="M179.098 16.7606H183.183C183.039 12.3549 179.411 8.81128 174.966 8.81128H160.862V25.2127H164.946V12.4747H174.966C177.176 12.4986 178.978 14.6056 179.098 16.7606Z" fill="white"/>
<path d="M135.345 8.83521H131.26V25.2366H135.345V8.83521Z" fill="white"/>
<path d="M113.48 8.83521V25.2366H117.565V13.5761L130.035 24.231V19.2507L117.565 8.83521H113.48Z" fill="white"/>
<path d="M64.5609 17.0479C64.5609 21.5733 68.2611 25.2606 72.8022 25.2606H76.5505V21.5972H72.8022C70.5196 21.5972 68.6455 19.3465 68.6455 17.0719C68.6455 14.7972 70.4956 12.5465 72.8022 12.5465H76.5505V8.88315H72.8022C68.2611 8.83526 64.5609 12.5226 64.5609 17.0479Z" fill="white"/>
<path d="M81.5721 8.83521H77.8239V12.4986H81.5721C83.8547 12.4986 85.7288 14.7493 85.7288 17.0239C85.7288 19.2986 83.8788 21.5493 81.5721 21.5493H77.8239V25.2127H81.5721C86.1133 25.2127 89.8135 21.5253 89.8135 17C89.7894 12.5225 86.1133 8.83521 81.5721 8.83521Z" fill="white"/>
<path d="M17.0833 4.3338C11.1246 4.3338 6.15096 8.40422 4.75739 13.8873H7.78481C9.1063 10.0085 12.7825 7.23099 17.0833 7.23099C19.438 7.23099 21.5764 8.04507 23.2823 9.4338H27.2708C24.9402 6.32113 21.24 4.3338 17.0833 4.3338Z" fill="white"/>
<path d="M4.73328 20.1127C5.67034 23.7761 8.19319 26.8169 11.557 28.4211V25.093C9.80301 23.8958 8.45748 22.1479 7.76069 20.1127H4.73328Z" fill="white"/>
<path d="M22.6096 25.093V28.4211C25.9493 26.8169 28.4962 23.7761 29.4333 20.1127H26.4058C25.7091 22.1718 24.3635 23.8958 22.6096 25.093Z" fill="white"/>
<path d="M17.0833 2.89718C22.0809 2.89718 26.4779 5.50704 29.0008 9.40986H32.3405C29.5294 3.85493 23.7388 0 17.0833 0C10.4037 0 4.63723 3.83099 1.82605 9.40986H5.16582C7.66465 5.50704 12.0856 2.89718 17.0833 2.89718Z" fill="white"/>
<path d="M33.8544 20.1127H30.875C29.4574 26.4099 23.811 31.1028 17.0594 31.1028C12.0377 31.1028 7.64072 28.493 5.11787 24.5662H1.80212C4.6133 30.1451 10.4038 34 17.0834 34C25.4208 34 32.3887 28.0141 33.8544 20.1127Z" fill="white"/>
<path d="M4.18072 22.8183C3.55602 21.4296 3.14756 19.9451 2.97937 18.3648H13.287V29.1155C14.4884 29.4986 15.7618 29.6902 17.0833 29.6902C18.4048 29.6902 19.6782 29.4986 20.8796 29.1155V18.3648H34.0945C34.1186 17.9099 34.1426 17.4789 34.1426 17.024C34.1426 16.569 34.1186 16.1141 34.0945 15.6831H20.8796V13.8873H33.8543C33.6861 12.9535 33.4218 12.0437 33.1094 11.1817H17.9723V26.769C17.684 26.793 17.3957 26.8169 17.0833 26.8169C16.795 26.8169 16.4826 26.793 16.1943 26.769V11.1817H13.287V15.6592H2.97937C3.12353 14.0789 3.55602 12.5704 4.18072 11.1817H1.03316C0.360404 13.0014 0 14.9648 0 17C0 19.0352 0.360404 20.9986 1.03316 22.8183H4.18072Z" fill="white"/>
</svg>
