<svg width="48" height="16" viewBox="0 0 48 16" fill="none" xmlns="http://www.w3.org/2000/svg">
<path fill-rule="evenodd" clip-rule="evenodd" d="M24.7142 5.4357C24.6869 7.50756 26.6298 8.66382 28.0934 9.35121C29.5973 10.0566 30.1023 10.5089 30.0966 11.1395C30.0851 12.1049 28.897 12.5309 27.785 12.5475C25.8974 12.5758 24.7787 12.0712 23.8936 11.672L23.8202 11.6389L23.1214 14.7909C24.0211 15.1906 25.687 15.5392 27.4147 15.5543C31.4699 15.5543 34.1231 13.6249 34.1374 10.6333C34.1469 8.36209 32.1951 7.37435 30.6332 6.58394C29.5843 6.05312 28.7113 5.6113 28.7263 4.92949C28.7392 4.41499 29.2485 3.8659 30.3649 3.72622C30.9174 3.65568 32.4428 3.60174 34.1718 4.36934L34.8506 1.31965C33.9208 0.993241 32.7254 0.680664 31.2374 0.680664C27.4204 0.680664 24.7357 2.63634 24.7142 5.4357ZM41.3724 0.94345C40.632 0.94345 40.0078 1.35976 39.7294 1.99875L33.9365 15.3303H37.9888L38.7953 13.1824H43.7473L44.2151 15.3303H47.7867L44.67 0.94345H41.3724ZM43.1087 10.2322L41.9393 4.82992L39.9059 10.2322H43.1087ZM19.8009 0.94345L16.6067 15.3303H20.4681L23.6609 0.94345H19.8009ZM10.069 10.7357L14.0883 0.94345H18.1435L11.8871 15.3303H7.80612L4.72672 3.84931C4.54018 3.14255 4.37803 2.88253 3.80979 2.58517C2.88138 2.09832 1.34885 1.64329 0 1.36114L0.0918367 0.94345H6.66247C7.49904 0.94345 8.25239 1.48009 8.44324 2.40951L10.069 10.7357Z" fill="#EDF0F0"/>
</svg>
