<svg width="24" height="18" viewBox="0 0 24 18" fill="none" xmlns="http://www.w3.org/2000/svg">
<path d="M21.0821 0.0649414H2.91823C1.32728 0.0649414 0.0331726 1.33673 0.0331726 2.90025V15.0993C0.0331726 16.6628 1.32728 17.9346 2.91823 17.9346H21.0821C22.6728 17.9346 23.9672 16.6628 23.9672 15.0993V2.90025C23.9669 1.33673 22.6728 0.0649414 21.0821 0.0649414ZM22.7378 15.0993C22.7378 15.9968 21.9951 16.7267 21.0818 16.7267H2.91823C2.00528 16.7267 1.26223 15.9968 1.26223 15.0993V2.90025C1.26223 2.00305 2.00496 1.2728 2.91823 1.2728H21.0821C21.9951 1.2728 22.7381 2.00273 22.7381 2.90025V15.0993H22.7378ZM20.988 14.3011C21.234 14.5307 21.2441 14.9131 21.0101 15.1548C20.8892 15.2799 20.7272 15.3429 20.5645 15.3429C20.4126 15.3429 20.2604 15.288 20.1414 15.1769L14.1259 9.56025L12.4118 11.0719C12.4023 11.0803 12.3916 11.0862 12.3818 11.094C12.3682 11.1045 12.3546 11.1148 12.3404 11.1241C12.3196 11.1377 12.2981 11.1492 12.276 11.1601C12.2618 11.1669 12.2482 11.1744 12.2337 11.1803C12.2081 11.1905 12.1819 11.1979 12.1557 11.2048C12.1437 11.2079 12.132 11.2122 12.1197 11.2144C12.0805 11.2218 12.0411 11.2265 12.0016 11.2265C12.0016 11.2265 12.0016 11.2265 12.0013 11.2265C12.001 11.2265 12.0013 11.2265 12.001 11.2265C11.9615 11.2265 11.922 11.2221 11.8832 11.2147C11.8712 11.2122 11.8595 11.2082 11.8475 11.2051C11.821 11.1983 11.7951 11.1908 11.7695 11.1806C11.755 11.1747 11.7414 11.1675 11.7275 11.1607C11.7054 11.1498 11.6839 11.1384 11.6631 11.1247C11.6489 11.1154 11.6353 11.1051 11.6217 11.0946C11.6119 11.0868 11.6012 11.0813 11.5917 11.0729L9.92054 9.60463L3.86812 15.1697C3.7497 15.2787 3.59875 15.3327 3.44844 15.3327C3.28423 15.3327 3.12065 15.2684 2.9997 15.1412C2.76791 14.8976 2.78086 14.5155 3.02844 14.2877L9.00096 8.79618L3.00349 3.52746C2.75054 3.30525 2.72875 2.92353 2.95486 2.67463C3.18096 2.42573 3.56938 2.40463 3.82265 2.62684L10.2641 8.28598C10.2995 8.31018 10.3333 8.3378 10.3639 8.36977C10.3674 8.37349 10.3696 8.37784 10.3731 8.38156L12.0006 9.81132L20.1467 2.62746C20.3994 2.40494 20.7878 2.42542 21.0145 2.6737C21.2413 2.92198 21.2201 3.3037 20.9675 3.52653L15.0436 8.75087L20.988 14.3011Z" fill="#FCB500"/>
</svg>
