<svg width="40" height="40" viewBox="0 0 40 40" fill="none" xmlns="http://www.w3.org/2000/svg">
<g clip-path="url(#clip0_71_491)">
<path d="M0.810402 7.05757C-0.252667 8.11757 -0.025494 9.61007 0.820443 10.4513C0.85433 10.4838 4.25188 13.7163 9.03004 18.4751C9.15304 18.5976 9.3137 18.6576 9.47435 18.6576C9.635 18.6576 9.79565 18.5963 9.91865 18.4751C10.1634 18.2313 10.1634 17.8351 9.91865 17.5913C9.19823 16.8738 8.51294 16.1951 7.8628 15.5526L9.85715 13.5663C10.1019 13.3226 10.1019 12.9263 9.85715 12.6826C9.61241 12.4388 9.21454 12.4388 8.9698 12.6826L6.97043 14.6738C5.85213 13.5738 4.86688 12.6138 4.06487 11.8351L8.60206 7.31632C8.8468 7.07257 8.8468 6.67632 8.60206 6.43257C8.35731 6.18882 7.95944 6.18882 7.7147 6.43257L3.16371 10.9651C2.23996 10.0738 1.7078 9.56757 1.69901 9.55882C1.43419 9.29507 1.08652 8.55257 1.69901 7.94257L7.97451 1.69257C8.21674 1.44757 8.86186 0.961318 9.56974 1.66257C9.60111 1.69757 12.7702 5.28257 17.6074 10.1001C17.8521 10.3438 18.25 10.3438 18.4947 10.1001C18.7395 9.85632 18.7395 9.46007 18.4947 9.21632C13.6877 4.43007 10.5424 0.872568 10.4847 0.807568C9.31495 -0.354932 7.90422 -0.00618233 7.08715 0.807568L0.810402 7.05757Z" fill="#FCB500"/>
<path d="M27.4289 30.1826C27.1842 29.9388 26.7863 29.9388 26.5416 30.1826L24.5447 32.1701C23.936 31.5563 23.2971 30.9138 22.6244 30.2438C22.3797 30.0001 21.9818 30.0001 21.7371 30.2438C21.4923 30.4876 21.4923 30.8838 21.7371 31.1276C26.3859 35.7563 29.6329 39.2138 29.6793 39.2638C30.1098 39.6938 30.6997 39.9301 31.3398 39.9301C31.9987 39.9301 32.6652 39.6738 33.0781 39.2613L39.3511 32.9401C40.1406 32.1538 40.1857 30.8201 39.449 30.0838L31.0323 21.7026C30.7876 21.4588 30.3897 21.4588 30.145 21.7026C29.9002 21.9463 29.9002 22.3426 30.145 22.5863L38.5617 30.9676C38.8127 31.2176 38.765 31.7576 38.4625 32.0588L32.1883 38.3801C32.0439 38.5251 31.7163 38.6801 31.3398 38.6801C31.1239 38.6801 30.8152 38.6276 30.5817 38.3938C30.5692 38.3801 30.0433 37.8213 29.1308 36.8701L33.7044 32.3151C33.9492 32.0713 33.9492 31.6751 33.7044 31.4313C33.4597 31.1876 33.0618 31.1876 32.8171 31.4313L28.2623 35.9676C27.4791 35.1563 26.519 34.1701 25.4258 33.0601L27.4289 31.0651C27.6737 30.8226 27.6737 30.4276 27.4289 30.1826Z" fill="#FCB500"/>
<path d="M0.178206 39.7863C0.298695 39.9088 0.460603 39.9738 0.627531 39.9738C0.687776 39.9738 0.748021 39.9651 0.80701 39.9476L13.358 36.2238C13.4597 36.1938 13.55 36.1401 13.6241 36.0651L35.0737 14.5588C35.1038 14.5288 35.1189 14.4901 35.1415 14.4563L39.7301 9.88632C40.0991 9.51757 40.3037 9.02882 40.3037 8.50757C40.3037 7.98757 40.0991 7.49882 39.7301 7.13257L33.1597 0.590068C32.4217 -0.144932 31.1327 -0.144932 30.3947 0.590068L25.7019 5.26382C25.6718 5.29382 25.6555 5.33257 25.6329 5.36757L4.15059 26.7638C4.08031 26.8338 4.02759 26.9188 3.99747 27.0126L0.0313592 39.1563C-0.0414365 39.3776 0.0150429 39.6188 0.178206 39.7863ZM26.1813 6.58882L27.4854 7.88757L8.00249 27.3438L5.83494 26.8538L26.1813 6.58882ZM8.78567 28.3326L28.374 8.77257L31.4314 11.8176L11.6661 31.2501H8.78567V28.3326ZM33.7421 14.1201L13.3542 34.5626L12.63 32.0601L32.3188 12.7013L33.7421 14.1201ZM5.01159 27.9488L7.53057 28.5188V31.8751C7.53057 32.2201 7.81172 32.5001 8.15812 32.5001H11.4515L12.2472 35.2501L1.59396 38.4113L5.01159 27.9488ZM31.2833 1.47382C31.5481 1.21007 32.0088 1.21007 32.2736 1.47382L38.844 8.01757C38.9758 8.14882 39.0486 8.32382 39.0486 8.51007C39.0486 8.69507 38.9758 8.87132 38.8428 9.00382L34.6118 13.2188L27.0524 5.69007L31.2833 1.47382Z" fill="#FCB500"/>
</g>
<defs>
<clipPath id="clip0_71_491">
<rect width="40" height="40" fill="white"/>
</clipPath>
</defs>
</svg>
