<svg width="26" height="26" viewBox="0 0 26 26" fill="none" xmlns="http://www.w3.org/2000/svg">
<path d="M11.8854 8.73019C11.8854 10.4911 10.4577 11.9182 8.69621 11.9182C6.93468 11.9182 5.50745 10.4911 5.50745 8.73019C5.50745 6.96971 6.93468 5.54248 8.69621 5.54248C10.4577 5.54248 11.8854 6.96971 11.8854 8.73019Z" fill="#F8F9FD"/>
<path d="M20.4922 8.73025C20.4922 10.4911 19.0646 11.9183 17.3029 11.9183C15.5417 11.9183 14.1142 10.4911 14.1142 8.73025C14.1142 6.96971 15.5417 5.54248 17.3029 5.54248C19.0646 5.54248 20.4922 6.96971 20.4922 8.73025Z" fill="#F8F9FD"/>
<path d="M11.8854 17.2697C11.8854 19.0306 10.4577 20.4577 8.69621 20.4577C6.93468 20.4577 5.50745 19.0306 5.50745 17.2697C5.50745 15.5092 6.93468 14.082 8.69621 14.082C10.4577 14.082 11.8854 15.5092 11.8854 17.2697Z" fill="#F8F9FD"/>
<path d="M20.4922 17.2697C20.4922 19.0306 19.0646 20.4577 17.3029 20.4577C15.5418 20.4577 14.1142 19.0306 14.1142 17.2697C14.1142 15.5092 15.5418 14.082 17.3029 14.082C19.0646 14.082 20.4922 15.5092 20.4922 17.2697Z" fill="#F8F9FD"/>
<path fill-rule="evenodd" clip-rule="evenodd" d="M26 13C26 5.83151 20.1685 0 13 0C5.83151 0 0 5.83151 0 13C0 20.0491 5.63872 25.8052 12.6427 25.9952L13 26C20.1685 26 26 20.1685 26 13ZM1.15852 12.9998C1.15852 6.58746 6.2861 1.34911 12.6575 1.16728L12.9999 1.1624C19.5291 1.1624 24.8414 6.47291 24.8414 12.9998C24.8414 19.5267 19.5291 24.8372 12.9999 24.8372C6.47086 24.8372 1.15852 19.5266 1.15852 12.9998Z" fill="#F8F9FD"/>
</svg>
