<svg width="24" height="24" viewBox="0 0 24 24" fill="none" xmlns="http://www.w3.org/2000/svg">
<path d="M9.18746 7.91221C9.33746 7.76221 9.48746 7.61221 9.63746 7.46221C10.1625 6.93721 10.425 6.33721 10.425 5.69971C10.425 5.06221 10.1625 4.46221 9.63746 3.93721L8.17496 2.47471C8.02496 2.32471 7.83746 2.13721 7.68746 1.98721C7.34996 1.64971 7.04996 1.31221 6.71246 1.01221C6.22496 0.524707 5.62496 0.262207 5.02496 0.262207C4.42496 0.262207 3.82496 0.524707 3.29996 1.01221L1.49996 2.81221C0.824957 3.48721 0.449957 4.27471 0.374957 5.21221C0.262457 6.37471 0.487457 7.61221 1.04996 9.11221C1.91246 11.3997 3.18746 13.5372 5.09996 15.8247C7.42496 18.5997 10.2 20.7747 13.35 22.3122C14.55 22.8747 16.1625 23.5497 17.9625 23.6622C18.075 23.6622 18.1875 23.6622 18.3 23.6622C19.5 23.6622 20.475 23.2497 21.2625 22.3872C21.2625 22.3872 21.2625 22.3872 21.3 22.3497C21.5625 22.0122 21.9 21.7122 22.2375 21.3747C22.4625 21.1497 22.6875 20.9247 22.9125 20.6997C23.9625 19.6122 23.9625 18.2622 22.9125 17.2122L19.9875 14.2872C19.5 13.7622 18.9 13.4997 18.2625 13.4997C17.625 13.4997 17.025 13.7622 16.5375 14.2872L14.8125 16.0122C14.6625 15.9372 14.475 15.8247 14.325 15.7497C14.1375 15.6372 13.95 15.5622 13.8 15.4497C12.225 14.4372 10.8 13.1247 9.41246 11.4372C8.69996 10.5747 8.24996 9.82471 7.94996 9.07471C8.36246 8.77471 8.77496 8.32471 9.18746 7.91221ZM6.97496 8.36221C6.97496 8.39971 6.97496 8.39971 6.97496 8.36221C6.56246 8.77471 6.59996 9.18721 6.71246 9.48721V9.52471C7.08746 10.4247 7.61246 11.2872 8.39996 12.2997C9.86246 14.0997 11.4 15.4872 13.0875 16.5747C13.3125 16.7247 13.5 16.7997 13.725 16.9122C13.9125 17.0247 14.1 17.0997 14.25 17.2122L14.2875 17.2497C14.4375 17.3247 14.5875 17.3622 14.775 17.3622C15.15 17.3622 15.4125 17.0997 15.4875 17.0247L17.2875 15.2247C17.55 14.9622 17.8875 14.8122 18.15 14.8122C18.525 14.8122 18.825 15.0372 19.0125 15.2247L21.9375 18.1497C22.5 18.7122 22.5 19.3497 21.9375 19.9497C21.75 20.1747 21.525 20.3622 21.3 20.5872C20.9625 20.9247 20.625 21.2622 20.2875 21.6372C19.8 22.2372 19.125 22.4997 18.2625 22.4997C18.1875 22.4997 18.075 22.4997 18 22.4997C16.425 22.3872 14.925 21.7872 13.8375 21.2622C10.8375 19.7997 8.17496 17.7372 5.96246 15.1122C4.16246 12.9372 2.92496 10.9122 2.13746 8.73721C1.64996 7.42471 1.46246 6.33721 1.53746 5.36221C1.57496 4.72471 1.83746 4.16221 2.28746 3.71221L4.08746 1.91221C4.38746 1.64971 4.68746 1.49971 4.98746 1.49971C5.28746 1.49971 5.58746 1.64971 5.84996 1.91221C6.18746 2.21221 6.48746 2.51221 6.82496 2.84971C6.97496 3.03721 7.16246 3.18721 7.31246 3.37471L8.77496 4.83721C9.07496 5.13721 9.22496 5.43721 9.22496 5.73721C9.22496 6.03721 9.07496 6.33721 8.77496 6.63721C8.62496 6.78721 8.47496 6.93721 8.32496 7.08721C7.87496 7.53721 7.46246 7.94971 6.97496 8.36221Z" fill="#FCB500"/>
</svg>
