<svg width="40" height="30" viewBox="0 0 40 30" fill="none" xmlns="http://www.w3.org/2000/svg">
<path fill-rule="evenodd" clip-rule="evenodd" d="M37.7811 27.6627V24.8682H37.1084V26.4891C36.9897 26.3418 36.8362 26.2237 36.6608 26.1449C36.4854 26.0659 36.2931 26.0283 36.0996 26.0352C35.6537 26.0352 35.2259 26.2061 34.9106 26.51C34.5952 26.814 34.4181 27.2263 34.4181 27.6561C34.4181 28.0861 34.5952 28.4984 34.9106 28.8024C35.2259 29.1063 35.6537 29.2771 36.0996 29.2771C36.2931 29.284 36.4854 29.2465 36.6608 29.1675C36.8362 29.0886 36.9897 28.9706 37.1084 28.8233V29.1993H37.7811V27.6627ZM16.9306 26.1131H18.0808L18.0874 26.729H16.944V28.1424C16.944 28.4537 17.0718 28.6612 17.4081 28.6612C17.6265 28.6542 17.8393 28.594 18.0269 28.4861L18.2288 29.0631C17.9665 29.2209 17.6634 29.3041 17.3544 29.3031C16.527 29.3031 16.2378 28.8752 16.2378 28.1554V26.729H15.5854V26.1131H16.2244V25.1729H16.9306V26.1131ZM7.63198 27.2671V29.2123L6.92578 29.2252V27.5005C6.92578 26.9754 6.69706 26.6835 6.21951 26.6835C6.10887 26.6784 5.9984 26.6968 5.8959 26.7372C5.79339 26.7777 5.70137 26.8393 5.62631 26.918C5.55126 26.9965 5.495 27.09 5.46153 27.1917C5.42805 27.2935 5.41817 27.4011 5.43258 27.5071V29.2252H4.72636V27.5005C4.72636 26.9754 4.49095 26.6835 4.02685 26.6835C3.91604 26.6778 3.8053 26.6957 3.70251 26.736C3.59972 26.7763 3.50743 26.838 3.43226 26.9167C3.35707 26.9954 3.30084 27.0891 3.26759 27.1911C3.23435 27.2932 3.2249 27.401 3.23991 27.5071V29.2123H2.53369V26.1131H3.23319V26.4956C3.33493 26.3464 3.47533 26.2255 3.64051 26.1447C3.80568 26.0639 3.98987 26.0263 4.17483 26.0352C4.38701 26.0264 4.59772 26.073 4.78475 26.17C4.97179 26.267 5.1282 26.4108 5.23753 26.5863C5.35746 26.4054 5.52557 26.2587 5.72433 26.1618C5.92309 26.0649 6.14521 26.0212 6.36749 26.0352C6.5373 26.0256 6.70728 26.0511 6.86613 26.1097C7.02498 26.1684 7.16895 26.259 7.2887 26.3756C7.40833 26.4922 7.50075 26.632 7.55999 26.7857C7.61924 26.9395 7.64369 27.1035 7.63198 27.2671ZM24.0467 26.0352C23.8762 26.0304 23.7074 26.07 23.5583 26.1499C23.4091 26.2297 23.285 26.3469 23.1993 26.4891V26.1131H22.5064V29.2123H23.2059V27.4746C23.2059 26.9624 23.4346 26.6771 23.8785 26.6771C24.0282 26.6752 24.1766 26.7016 24.3157 26.755L24.5309 26.1065C24.3712 26.0514 24.2029 26.0229 24.0332 26.0222L24.0467 26.0352ZM13.7156 26.0352C14.176 26.0199 14.6312 26.1325 15.0272 26.3594L14.7177 26.9041C14.4106 26.7337 14.0632 26.6422 13.7089 26.6382C13.3254 26.6382 13.0968 26.7938 13.0968 27.0013C13.0968 27.2088 13.339 27.2671 13.6416 27.3061L13.9779 27.3514C14.6774 27.4486 15.1011 27.6886 15.1011 28.2786C15.1011 28.8686 14.5631 29.2901 13.6349 29.2901C13.1381 29.3033 12.6501 29.1623 12.2427 28.888L12.5789 28.3629C12.8875 28.5837 13.2642 28.6978 13.6483 28.6871C14.1259 28.6871 14.3815 28.5509 14.3815 28.311C14.3815 28.136 14.1998 28.0387 13.8165 27.9869L13.4802 27.9414C12.7606 27.8442 12.3704 27.5329 12.3704 27.0273C12.3704 26.4113 12.9018 26.0352 13.7156 26.0352ZM33.7623 26.0352C33.5918 26.0304 33.423 26.07 33.2739 26.1499C33.1247 26.2297 33.0008 26.3469 32.9149 26.4891V26.1131H32.2221V29.2123H32.9215V27.4746C32.9215 26.9624 33.1502 26.6771 33.5942 26.6771C33.7438 26.6752 33.8924 26.7016 34.0314 26.755L34.2466 26.1065C34.0869 26.0514 33.9185 26.0229 33.7489 26.0222L33.7623 26.0352ZM24.8639 28.2935C24.7802 28.091 24.7412 27.8739 24.7495 27.6561V27.6432C24.7412 27.4255 24.7802 27.2083 24.8639 27.0058C24.9476 26.8034 25.0742 26.6201 25.2357 26.4675C25.3971 26.3149 25.5897 26.1965 25.8014 26.1198C26.013 26.0431 26.239 26.01 26.4647 26.0222C26.8847 26.0017 27.2974 26.1335 27.6215 26.3918L27.2853 26.9365C27.0435 26.7587 26.7485 26.6609 26.4445 26.6577C26.1859 26.6778 25.9447 26.7911 25.7688 26.9749C25.5929 27.1587 25.4954 27.3996 25.4954 27.6497C25.4954 27.8997 25.5929 28.1406 25.7688 28.3244C25.9447 28.5082 26.1859 28.6216 26.4445 28.6416C26.7485 28.6384 27.0435 28.5406 27.2853 28.3629L27.6215 28.9075C27.2974 29.1659 26.8847 29.2977 26.4647 29.2771C26.239 29.2894 26.013 29.2562 25.8014 29.1795C25.5897 29.1028 25.3971 28.9845 25.2357 28.8319C25.0742 28.6793 24.9476 28.4959 24.8639 28.2935ZM31.3006 27.6561V26.1131H30.6011V26.4891C30.4824 26.3418 30.3289 26.2237 30.1535 26.1449C29.978 26.0659 29.7857 26.0283 29.5923 26.0352C29.1462 26.0352 28.7185 26.2061 28.4033 26.51C28.0879 26.814 27.9107 27.2263 27.9107 27.6561C27.9107 28.0861 28.0879 28.4984 28.4033 28.8024C28.7185 29.1063 29.1462 29.2771 29.5923 29.2771C29.7857 29.284 29.978 29.2465 30.1535 29.1675C30.3289 29.0886 30.4824 28.9706 30.6011 28.8233V29.1993H31.3006V27.6561ZM28.8882 27.1519C28.775 27.2985 28.7088 27.4737 28.6977 27.6561C28.6888 27.7842 28.7076 27.9127 28.7528 28.0335C28.798 28.1543 28.8686 28.2647 28.9602 28.3578C29.0517 28.4511 29.1624 28.5249 29.285 28.5749C29.4078 28.6249 29.5398 28.6498 29.673 28.6482C29.8625 28.6473 30.0477 28.5928 30.2056 28.4918C30.3636 28.3907 30.4873 28.2473 30.5617 28.0792C30.6362 27.9111 30.658 27.7257 30.6245 27.5459C30.591 27.366 30.5037 27.1995 30.3733 27.0668C30.2429 26.9342 30.0751 26.8412 29.8906 26.7993C29.706 26.7575 29.5129 26.7685 29.3347 26.8311C29.1567 26.8938 29.0014 27.0052 28.8882 27.1519ZM20.2565 26.0352C19.8106 26.0412 19.3854 26.2178 19.0745 26.526C18.7636 26.8343 18.5924 27.249 18.5987 27.6788C18.6049 28.1088 18.788 28.5187 19.1078 28.8183C19.4275 29.1181 19.8577 29.2831 20.3036 29.2771C20.7875 29.301 21.2633 29.1508 21.6388 28.8556L21.3025 28.3565C21.0369 28.5617 20.708 28.6757 20.3676 28.6806C20.1363 28.6997 19.9065 28.6312 19.7269 28.4895C19.5473 28.3478 19.4321 28.1443 19.4058 27.922H21.7935V27.6627C21.7935 26.6901 21.1679 26.0418 20.2667 26.0418L20.2565 26.0352ZM20.5629 26.6904C20.4654 26.6538 20.3613 26.636 20.2566 26.6382H20.2431C20.027 26.6311 19.8166 26.7058 19.657 26.8464C19.4973 26.987 19.4011 27.1822 19.3889 27.3903H21.0704C21.0683 27.2894 21.0454 27.19 21.0034 27.0976C20.9613 27.0051 20.9008 26.9216 20.8252 26.8517C20.7495 26.7819 20.6605 26.7271 20.5629 26.6904ZM39.0758 28.7844C39.0375 28.7697 38.9967 28.7621 38.9554 28.7616H38.9582C38.9111 28.7598 38.864 28.7676 38.8203 28.7844C38.7816 28.7995 38.7462 28.8216 38.716 28.8492C38.6864 28.8771 38.6625 28.9101 38.6454 28.9465C38.6285 28.9844 38.6198 29.0251 38.6198 29.0663C38.6198 29.1077 38.6285 29.1484 38.6454 29.1863C38.6722 29.2421 38.7148 29.2894 38.7684 29.3227C38.822 29.356 38.8843 29.3739 38.9481 29.3744C38.992 29.3744 39.0355 29.3655 39.0758 29.3484C39.1144 29.3333 39.1498 29.3112 39.1801 29.2835C39.2096 29.2556 39.2336 29.2227 39.2507 29.1863C39.2677 29.1485 39.2765 29.1077 39.2765 29.0663C39.2765 29.0251 39.2677 28.9842 39.2507 28.9465C39.2336 28.9101 39.2096 28.8771 39.1801 28.8492C39.1498 28.8216 39.1144 28.7995 39.0758 28.7844ZM38.9514 29.3095C38.9838 29.3093 39.0159 29.3026 39.0455 29.2901C39.0745 29.2776 39.1008 29.26 39.1229 29.2382C39.1649 29.194 39.1884 29.1361 39.1884 29.0761C39.1884 29.016 39.1649 28.9583 39.1229 28.914C39.1008 28.8922 39.0746 28.8745 39.0455 28.8622C39.0148 28.8492 38.9816 28.8426 38.9481 28.8427C38.9145 28.8429 38.8814 28.8494 38.8505 28.8622C38.8203 28.8741 38.7928 28.8917 38.7698 28.914C38.7277 28.9583 38.7044 29.016 38.7044 29.0761C38.7044 29.1361 38.7277 29.194 38.7698 29.2382C38.7929 29.2605 38.8204 29.278 38.8505 29.2901C38.8844 29.3042 38.9212 29.3109 38.9582 29.3095H38.9514ZM39.0556 28.9497C39.0306 28.9314 38.9996 28.9222 38.9683 28.9237L38.8269 28.9269V29.2123H38.8909V29.1052H38.9212L39.0119 29.2123H39.0893L38.9918 29.1052C39.018 29.1034 39.0429 29.0932 39.0624 29.0761C39.0703 29.0685 39.0764 29.0593 39.0805 29.0493C39.0846 29.0392 39.0864 29.0286 39.0859 29.0178C39.0869 29.0049 39.0846 28.992 39.0793 28.9802C39.0741 28.9684 39.066 28.9579 39.0556 28.9497ZM38.8942 28.9788V29.0567H38.9683C38.9813 29.0605 38.9954 29.0605 39.0086 29.0567C39.011 29.0521 39.0121 29.0472 39.0121 29.0421C39.0121 29.0371 39.011 29.032 39.0086 29.0275C39.011 29.0229 39.0121 29.018 39.0121 29.0129C39.0121 29.0078 39.011 29.0028 39.0086 28.9984C38.9954 28.9946 38.9813 28.9946 38.9683 28.9984L38.8942 28.9788ZM35.3856 27.1583C35.2724 27.3049 35.2061 27.4802 35.195 27.6627C35.1862 27.7908 35.2049 27.9193 35.2501 28.0399C35.2952 28.1607 35.3658 28.2711 35.4575 28.3644C35.5491 28.4575 35.6596 28.5314 35.7824 28.5814C35.905 28.6313 36.037 28.6563 36.1702 28.6546C36.3598 28.6537 36.545 28.5994 36.7028 28.4982C36.8608 28.3971 36.9846 28.2537 37.059 28.0856C37.1335 27.9175 37.1553 27.7322 37.1218 27.5523C37.0884 27.3724 37.001 27.2059 36.8706 27.0733C36.7402 26.9406 36.5724 26.8476 36.3879 26.8058C36.2034 26.7639 36.0102 26.7749 35.8321 26.8376C35.6539 26.9003 35.4988 27.0117 35.3856 27.1583ZM11.5768 27.6627V26.1131H10.8772V26.4891C10.7585 26.3418 10.605 26.2237 10.4296 26.1449C10.2541 26.0659 10.0618 26.0283 9.86838 26.0352C9.42234 26.0352 8.99467 26.2061 8.6794 26.51C8.36401 26.814 8.18686 27.2263 8.18686 27.6561C8.18686 28.0861 8.36401 28.4984 8.6794 28.8024C8.99467 29.1063 9.42234 29.2771 9.86838 29.2771C10.0618 29.284 10.2541 29.2465 10.4296 29.1675C10.605 29.0886 10.7585 28.9706 10.8772 28.8233V29.1993H11.5768V27.6627ZM9.16436 27.1583C9.05115 27.3049 8.98491 27.4802 8.97377 27.6627H8.96711C8.95816 27.7912 8.9771 27.9203 9.02268 28.0415C9.06826 28.1628 9.13956 28.2734 9.23187 28.3668C9.32417 28.46 9.43565 28.5338 9.55908 28.5833C9.6825 28.6329 9.81533 28.6571 9.94909 28.6546C10.1386 28.6537 10.3238 28.5994 10.4817 28.4982C10.6396 28.3971 10.7634 28.2537 10.8378 28.0856C10.9123 27.9175 10.9342 27.7322 10.9006 27.5523C10.8671 27.3724 10.7799 27.2059 10.6494 27.0733C10.519 26.9406 10.3513 26.8476 10.1668 26.8058C9.98215 26.7639 9.78893 26.7749 9.61086 26.8376C9.43278 26.9003 9.27756 27.0117 9.16436 27.1583Z" fill="#EDF0F0"/>
<path d="M25.3884 2.49609H14.795V20.8484H25.3884V2.49609Z" fill="#D3D4D6"/>
<path d="M15.4678 11.6749C15.4658 9.90718 15.8811 8.16218 16.6822 6.57205C17.4834 4.98202 18.6494 3.5885 20.0919 2.49708C18.3058 1.14399 16.1609 0.302579 13.9023 0.0690201C11.6436 -0.164539 9.36236 0.219181 7.3193 1.17631C5.27618 2.13345 3.55363 3.62538 2.3485 5.4816C1.14335 7.33784 0.504272 9.48342 0.504272 11.6732C0.504272 13.8631 1.14335 16.0087 2.3485 17.8649C3.55363 19.7211 5.27618 21.213 7.3193 22.1702C9.36236 23.1273 11.6436 23.5111 13.9023 23.2774C16.1609 23.0439 18.3058 22.2025 20.0919 20.8494C18.6498 19.7584 17.4842 18.3654 16.683 16.7758C15.8819 15.1864 15.4663 13.4421 15.4678 11.6749Z" fill="#EDF0F0"/>
<path d="M39.6811 11.6738C39.6811 13.8637 39.0419 16.0095 37.8365 17.8658C36.6312 19.722 34.9083 21.214 32.8649 22.1709C30.8216 23.128 28.5401 23.5115 26.2813 23.2776C24.0227 23.0436 21.8777 22.2018 20.0918 20.8483C21.5332 19.7562 22.6987 18.3629 23.4999 16.7733C24.3013 15.1838 24.7176 13.4395 24.7176 11.6722C24.7176 9.9048 24.3013 8.16059 23.4999 6.57104C22.6987 4.98142 21.5332 3.58803 20.0918 2.49599C21.8777 1.14247 24.0227 0.300652 26.2813 0.0667601C28.5401 -0.167132 30.8216 0.216335 32.8649 1.17333C34.9083 2.13033 36.6312 3.62224 37.8365 5.47853C39.0419 7.33476 39.6811 9.48057 39.6811 11.6706V11.6738Z" fill="#E6E6E6"/>
<path fill-rule="evenodd" clip-rule="evenodd" d="M38.5244 18.5274V18.9036H38.4536V18.5274H38.2822V18.4497H38.6823V18.5274H38.5244ZM39.3012 18.4497V18.9036L39.2306 18.9068V18.5631L39.0993 18.8581H39.0085L38.8774 18.5631V18.9036H38.79V18.4497H38.8976L39.0388 18.7738L39.18 18.4497H39.3012Z" fill="#C6C6C6"/>
</svg>
